<svg width="20" height="20" viewBox="0 0 20 20" fill="none" xmlns="http://www.w3.org/2000/svg">
<path fill-rule="evenodd" clip-rule="evenodd" d="M18.75 10.0525C18.75 5.22046 14.832 1.30249 10 1.30249C5.16797 1.30249 1.25 5.22046 1.25 10.0525C1.25 14.4197 4.44922 18.0396 8.63281 18.6966V12.5826H6.41055V10.0525H8.63281V8.12475C8.63281 5.93218 9.93945 4.72007 11.9379 4.72007C12.8953 4.72007 13.8969 4.89116 13.8969 4.89116V7.04468H12.793C11.7066 7.04468 11.3668 7.7189 11.3668 8.41186V10.0525H13.7934L13.4059 12.5826H11.3672V18.6974C15.5508 18.0408 18.75 14.4208 18.75 10.0525V10.0525Z" fill="#333333"/>
</svg>
