<svg width="97" height="32" viewBox="0 0 97 32" fill="none" xmlns="http://www.w3.org/2000/svg">
<path fill-rule="evenodd" clip-rule="evenodd" d="M11.4062 0.0257782C9.94445 0.18574 8.20705 0.683837 7.03414 1.27926C6.33945 1.63185 5.19539 2.31959 4.9986 2.50287C4.9323 2.56464 4.60587 2.85218 4.27324 3.14185C0.497242 6.42973 -0.934937 11.5605 0.617228 16.2396C1.2547 18.1612 2.12669 19.5641 3.63013 21.0868C6.08639 23.5746 9.11315 24.8267 12.6709 24.8267C15.1774 24.8267 17.4414 24.1639 19.3118 22.8827C20.091 22.349 21.4954 20.9799 22.0129 20.2494C22.9 18.9974 23.5575 17.3167 23.8311 15.6013C23.9824 14.653 24.0331 12.4078 23.9172 11.7848L23.8515 11.4323H18.1782H12.5048V13.0704V14.7086H16.5732H20.6417L20.5782 15.1181C20.092 18.2604 18.0176 20.4825 14.8263 21.2798C13.6277 21.5793 11.3662 21.5765 10.2599 21.2743C7.69282 20.5728 5.43517 18.6596 4.38243 16.2935C3.79578 14.9748 3.51321 13.4442 3.58285 11.9623C3.76684 8.04833 6.26283 4.8066 9.9733 3.66259C10.7625 3.41927 10.9663 3.39702 12.4571 3.39181C13.7502 3.38728 14.2173 3.42265 14.7498 3.56536C15.9265 3.88066 17.2343 4.57398 18.3587 5.47873L18.6242 5.69227L19.7778 4.5285L20.9315 3.36483L20.1088 2.70089C18.5417 1.43623 16.8391 0.61513 15.0362 0.254639C14.0954 0.0664432 12.1531 -0.0559371 11.4062 0.0257782ZM77.3694 12.6368V24.3448H79.0412H80.7129V12.6368V0.92879H79.0412H77.3694V12.6368ZM49.8823 8.9471C48.1336 9.08278 46.4884 9.84221 45.1498 11.1316C43.5415 12.6809 42.7658 14.5524 42.7687 16.8768C42.7742 21.4021 46.1935 24.8267 50.7063 24.8267C54.9953 24.8267 58.3283 21.6744 58.6147 17.3469C58.8278 14.1268 57.142 11.1562 54.3037 9.75038C52.8829 9.04664 51.6011 8.81374 49.8823 8.9471ZM88.9097 8.93949C85.828 9.24852 83.3149 11.5192 82.4713 14.7568C82.2027 15.7874 82.2213 17.9715 82.507 18.9764C83.1803 21.3432 84.4615 22.9276 86.6113 24.0518C87.4751 24.5036 88.4313 24.7341 89.7012 24.7971C91.3595 24.8791 92.3332 24.673 93.786 23.9323C94.5936 23.5206 95.7509 22.5439 96.3785 21.7446L96.6752 21.367L95.381 20.4932L94.087 19.6196L93.4536 20.2969C92.9815 20.8016 92.6371 21.0653 92.1011 21.3326C91.4365 21.6639 91.306 21.694 90.3831 21.7284C89.6375 21.7563 89.2283 21.7231 88.7682 21.5975C87.8023 21.3337 86.7885 20.4904 86.3153 19.5571C86.164 19.2589 86.1658 19.2482 86.3738 19.1843C86.4916 19.148 86.76 19.0413 86.9701 18.9471C87.1803 18.853 87.8466 18.5736 88.4508 18.3261C89.0551 18.0788 89.6784 17.8182 89.836 17.7472C89.9936 17.6762 90.617 17.4159 91.2212 17.1689C91.8254 16.9219 92.4917 16.6428 92.7019 16.5487C92.9121 16.4547 93.9116 16.0353 94.923 15.6169C95.9343 15.1985 96.7619 14.802 96.7619 14.7358C96.7619 14.4761 96.0083 12.8715 95.5836 12.2273C95.1026 11.4972 94.2477 10.5576 93.705 10.1622C92.3994 9.21113 90.6496 8.76498 88.9097 8.93949ZM31.3654 9.16228C28.6496 9.87054 26.5541 11.9203 25.7767 14.6287C25.4601 15.7317 25.4163 17.588 25.6805 18.7076C26.3332 21.4738 28.2367 23.5475 30.9738 24.4741C31.8095 24.757 31.9216 24.7706 33.4258 24.7723C34.9007 24.774 35.0542 24.7567 35.814 24.5029C38.6972 23.5397 40.6338 21.3774 41.2169 18.4698C41.4354 17.3802 41.3625 15.54 41.0622 14.5641C40.3911 12.3828 38.813 10.5358 36.8343 9.61547C35.2953 8.89979 33.0769 8.71593 31.3654 9.16228ZM65.8335 9.12075C63.7317 9.67628 61.7448 11.3786 60.7735 13.4559C60.1972 14.6885 60.0296 15.4887 60.037 16.9731C60.0424 18.0617 60.0781 18.3393 60.3095 19.0915C60.7979 20.6785 61.3977 21.6388 62.638 22.8189C63.6637 23.795 65.0182 24.4908 66.365 24.7337C67.2865 24.8998 68.7486 24.8074 69.5234 24.5341C70.1966 24.2966 71.2608 23.6193 71.5563 23.2402C71.9075 22.79 71.9478 22.9213 71.9027 24.3689C71.8667 25.5239 71.8227 25.8418 71.6256 26.3698C71.0125 28.0112 69.8457 28.8379 67.9935 28.9429C66.0597 29.0523 64.8127 28.3013 63.6609 26.333C63.5739 26.1843 63.4931 26.2006 62.7534 26.5163C62.3068 26.7068 61.7309 26.9486 61.4737 27.0534C60.565 27.4237 60.5982 27.3468 61.0071 28.1316C61.2698 28.6359 61.632 29.0919 62.3362 29.8053C63.1813 30.6613 63.4179 30.8412 64.199 31.2214C65.5591 31.8833 66.0976 32.0024 67.7209 32C69.358 31.9977 70.0207 31.8561 71.3033 31.2347C73.1364 30.3465 74.2786 28.8261 74.9076 26.4367C75.1123 25.659 75.1163 25.5095 75.1481 17.5272L75.1803 9.40868H73.5523H71.9242V10.035C71.9242 10.3795 71.8999 10.6614 71.87 10.6614C71.8401 10.6614 71.5739 10.4626 71.2782 10.2197C70.6195 9.6784 69.8513 9.27868 69.0847 9.07825C68.2751 8.86664 66.7178 8.88697 65.8335 9.12075ZM34.6199 12.125C35.2195 12.2754 36.0271 12.7496 36.5222 13.242C38.0397 14.7511 38.399 17.3706 37.3626 19.3699C36.9862 20.096 36.0762 20.9666 35.2886 21.354C34.692 21.6476 34.5154 21.6874 33.649 21.7237C32.4611 21.7734 31.7132 21.56 30.8629 20.9285C29.5583 19.9598 28.9102 18.6144 28.9112 16.8768C28.9123 14.8527 29.8226 13.2735 31.4674 12.4419C32.4459 11.9472 33.4919 11.8421 34.6199 12.125ZM51.9091 12.1259C52.5776 12.2959 53.2267 12.6936 53.8253 13.2997C54.8379 14.3252 55.265 15.5436 55.1806 17.1658C55.0987 18.7379 54.5396 19.904 53.436 20.8041C52.5503 21.5264 52.0352 21.6918 50.6638 21.6934C49.5263 21.6949 49.5037 21.6905 48.801 21.338C47.2568 20.5631 46.3377 19.1523 46.175 17.3067C45.9419 14.6611 47.6313 12.3518 50.0479 12.0131C50.6213 11.9328 51.3148 11.9748 51.9091 12.1259ZM69.179 12.1719C70.8533 12.7019 72.0148 14.3652 72.1741 16.4611C72.3373 18.6083 71.3559 20.5322 69.6706 21.3691C69.1029 21.6509 68.9142 21.6939 68.0959 21.7271C67.0261 21.7704 66.482 21.6337 65.5983 21.0994C63.551 19.8616 62.8053 16.7838 63.9858 14.4426C64.9792 12.4723 67.1414 11.5269 69.179 12.1719ZM90.9969 12.0576C91.645 12.2518 92.2396 12.6717 92.5707 13.169C92.7217 13.3958 92.8452 13.6108 92.8452 13.647C92.8452 13.6831 92.7055 13.7595 92.5347 13.8168C92.2356 13.9172 89.8244 14.9248 87.2734 16.0156C85.6297 16.7184 85.5845 16.7282 85.5866 16.3813C85.592 15.4767 86.1292 14.0433 86.7043 13.3989C87.2311 12.8085 88.0313 12.2894 88.7852 12.0489C89.3123 11.8808 90.421 11.8851 90.9969 12.0576Z" fill="white"/>
</svg>
