<svg width="206" height="50" viewBox="0 0 206 50" fill="none" xmlns="http://www.w3.org/2000/svg">
<path d="M71.7603 19.9137V30.1723H69.3716L64.8431 24.7059V30.1723H62V19.9137H64.3888L68.9172 25.38V19.9137H71.7603Z" fill="black"/>
<path d="M83.2908 30.3775C82.2063 30.3775 81.2293 30.1479 80.3597 29.6887C79.5 29.2295 78.8209 28.5944 78.3227 27.7835C77.8342 26.9726 77.5899 26.0591 77.5899 25.043C77.5899 24.0269 77.8342 23.1134 78.3227 22.3025C78.8209 21.4915 79.5 20.8565 80.3597 20.3973C81.2293 19.9381 82.2063 19.7085 83.2908 19.7085C84.3752 19.7085 85.3474 19.9381 86.2071 20.3973C87.0767 20.8565 87.7557 21.4915 88.2442 22.3025C88.7425 23.1134 88.9916 24.0269 88.9916 25.043C88.9916 26.0591 88.7425 26.9726 88.2442 27.7835C87.7557 28.5944 87.0767 29.2295 86.2071 29.6887C85.3474 30.1479 84.3752 30.3775 83.2908 30.3775ZM83.2908 27.974C83.8086 27.974 84.2775 27.8519 84.6977 27.6076C85.1178 27.3634 85.45 27.0214 85.6942 26.5818C85.9385 26.1323 86.0606 25.6194 86.0606 25.043C86.0606 24.4665 85.9385 23.9585 85.6942 23.5188C85.45 23.0694 85.1178 22.7226 84.6977 22.4783C84.2775 22.2341 83.8086 22.1119 83.2908 22.1119C82.7729 22.1119 82.304 22.2341 81.8839 22.4783C81.4638 22.7226 81.1316 23.0694 80.8873 23.5188C80.6431 23.9585 80.5209 24.4665 80.5209 25.043C80.5209 25.6194 80.6431 26.1323 80.8873 26.5818C81.1316 27.0214 81.4638 27.3634 81.8839 27.6076C82.304 27.8519 82.7729 27.974 83.2908 27.974Z" fill="black"/>
<path d="M96.8623 22.2145H93.7114V19.9137H102.9V22.2145H99.764V30.1723H96.8623V22.2145Z" fill="black"/>
<path d="M116.528 27.93V30.1723H108.292V19.9137H116.337V22.1559H111.164V23.8852H115.722V26.0542H111.164V27.93H116.528Z" fill="black"/>
<path d="M126.933 27.4464H125.35V30.1723H122.448V19.9137H127.138C128.066 19.9137 128.872 20.07 129.556 20.3826C130.24 20.6855 130.768 21.1252 131.139 21.7016C131.51 22.2683 131.696 22.9375 131.696 23.7094C131.696 24.4519 131.52 25.1016 131.168 25.6585C130.826 26.2056 130.333 26.6355 129.688 26.9482L131.901 30.1723H128.794L126.933 27.4464ZM128.765 23.7094C128.765 23.2306 128.613 22.8594 128.31 22.5956C128.008 22.3318 127.558 22.1999 126.962 22.1999H125.35V25.2042H126.962C127.558 25.2042 128.008 25.0772 128.31 24.8232C128.613 24.5594 128.765 24.1881 128.765 23.7094Z" fill="black"/>
<path d="M142.722 30.3775C141.647 30.3775 140.68 30.1528 139.82 29.7033C138.97 29.2441 138.301 28.6091 137.812 27.7982C137.324 26.9872 137.08 26.0688 137.08 25.043C137.08 24.0171 137.324 23.0987 137.812 22.2878C138.301 21.4769 138.97 20.8467 139.82 20.3973C140.68 19.9381 141.647 19.7085 142.722 19.7085C143.66 19.7085 144.505 19.8746 145.257 20.2068C146.009 20.539 146.635 21.0177 147.133 21.643L145.286 23.3137C144.622 22.5125 143.816 22.1119 142.868 22.1119C142.311 22.1119 141.813 22.2341 141.374 22.4783C140.944 22.7226 140.607 23.0694 140.362 23.5188C140.128 23.9585 140.011 24.4665 140.011 25.043C140.011 25.6194 140.128 26.1323 140.362 26.5818C140.607 27.0214 140.944 27.3634 141.374 27.6076C141.813 27.8519 142.311 27.974 142.868 27.974C143.816 27.974 144.622 27.5734 145.286 26.7723L147.133 28.443C146.635 29.0683 146.009 29.547 145.257 29.8792C144.505 30.2114 143.66 30.3775 142.722 30.3775Z" fill="#4D4FFA"/>
<path d="M152.737 19.9137H155.639V27.8714H160.534V30.1723H152.737V19.9137Z" fill="#4D4FFA"/>
<path d="M172.98 28.1792H168.642L167.836 30.1723H164.876L169.404 19.9137H172.262L176.805 30.1723H173.786L172.98 28.1792ZM172.13 26.0395L170.811 22.7568L169.492 26.0395H172.13Z" fill="#4D4FFA"/>
<path d="M191.771 19.9137L187.374 30.1723H184.516L180.135 19.9137H183.271L186.055 26.5964L188.898 19.9137H191.771Z" fill="#4D4FFA"/>
<path d="M204.918 27.93V30.1723H196.682V19.9137H204.727V22.1559H199.554V23.8852H204.112V26.0542H199.554V27.93H204.918Z" fill="#4D4FFA"/>
<path fill-rule="evenodd" clip-rule="evenodd" d="M23.6766 0.0142539C22.9695 0.0494338 21.8446 0.16691 21.2153 0.27127C21.022 0.303343 20.7707 0.342043 20.6569 0.357263C20.5431 0.372464 20.2662 0.425597 20.0416 0.47529C19.8169 0.525002 19.5603 0.578843 19.4714 0.594948C19.3824 0.611054 19.1758 0.660392 19.0123 0.704598C18.8488 0.748804 18.6425 0.801603 18.5538 0.821917C18.3827 0.861148 18.1725 0.920948 17.9101 1.00509C17.8219 1.03337 17.6812 1.07402 17.5975 1.09543C17.5138 1.11685 17.3354 1.17295 17.2011 1.22009C17.0668 1.26724 16.9042 1.3213 16.8397 1.34022C16.7753 1.35913 16.6258 1.41282 16.5077 1.45952C16.3895 1.50622 16.2664 1.55086 16.2342 1.55871C16.202 1.56655 16.0965 1.60596 15.9998 1.64629C15.9031 1.68663 15.7493 1.74619 15.6579 1.77868C15.5666 1.81114 15.3943 1.88292 15.2751 1.93814C15.1558 1.99335 15.0478 2.03854 15.0351 2.03854C15.0224 2.03854 14.9175 2.08599 14.8021 2.144C14.6866 2.20202 14.5704 2.25641 14.5439 2.26486C14.5174 2.27332 14.3444 2.35418 14.1595 2.44454C13.9746 2.5349 13.817 2.60882 13.8094 2.60882C13.8018 2.60882 13.7816 2.62024 13.7647 2.63418C13.7477 2.64815 13.6767 2.68574 13.6069 2.71776C13.537 2.74977 13.4272 2.80578 13.3627 2.84223C13.2982 2.87867 13.1532 2.9568 13.0404 3.01585C12.9276 3.07489 12.8219 3.13535 12.8054 3.15022C12.789 3.16509 12.7275 3.20033 12.6687 3.22851C12.6099 3.2567 12.5003 3.31863 12.4251 3.36614C12.3499 3.41365 12.258 3.46649 12.221 3.48356C12.184 3.50062 12.1268 3.53512 12.094 3.56017C12.0612 3.58524 11.9597 3.64797 11.8683 3.69959C11.777 3.75121 11.6715 3.81667 11.6339 3.84505C11.5963 3.87342 11.5257 3.91883 11.477 3.94591C11.4283 3.97301 11.2714 4.07481 11.1283 4.17215C10.9853 4.26949 10.822 4.3801 10.7654 4.41796C10.5655 4.55181 10.2275 4.79467 10.148 4.86151C10.1038 4.89875 10.0606 4.92923 10.0522 4.92923C10.0438 4.92923 9.97498 4.98011 9.89924 5.04231C9.82351 5.10449 9.67519 5.22133 9.56965 5.30194C9.30768 5.50204 9.12882 5.64774 8.99881 5.767C8.93864 5.82218 8.87478 5.87528 8.85691 5.88499C8.83902 5.89469 8.76998 5.9513 8.70347 6.01079C8.63698 6.07027 8.52755 6.16761 8.46029 6.2271C8.01058 6.62489 7.7811 6.84161 7.30482 7.31822C6.92678 7.69655 6.60474 8.03559 6.39883 8.27198C6.329 8.35215 6.23231 8.45956 6.18396 8.51066C6.13561 8.56177 6.07019 8.63964 6.03859 8.68371C6.00698 8.72778 5.9743 8.76383 5.96596 8.76383C5.95762 8.76383 5.91355 8.8147 5.86806 8.8769C5.82254 8.93908 5.76679 9.00478 5.74415 9.02289C5.72149 9.041 5.67735 9.09409 5.64603 9.14087C5.61472 9.18766 5.56805 9.24806 5.54231 9.2751C5.51658 9.30214 5.42407 9.41639 5.33673 9.52901C5.24942 9.64161 5.1319 9.79205 5.0756 9.86331C5.01931 9.93456 4.95777 10.0183 4.93887 10.0493C4.91996 10.0803 4.8644 10.1556 4.81541 10.2164C4.72591 10.3277 4.49746 10.6486 4.40637 10.791C4.37951 10.833 4.32409 10.9139 4.28323 10.9709C4.14946 11.1573 3.99709 11.3875 3.95443 11.4677C3.93142 11.511 3.8744 11.6004 3.82773 11.6664C3.78105 11.7324 3.73089 11.8097 3.71623 11.8381C3.70158 11.8665 3.64384 11.9629 3.58794 12.0524C3.42735 12.3092 3.23119 12.6435 3.21331 12.6909C3.20431 12.7147 3.17241 12.7722 3.14239 12.8186C2.96259 13.0967 2.02323 15.0084 2.02323 15.0961C2.02323 15.1063 1.99351 15.179 1.9572 15.2576C1.83388 15.5247 1.79474 15.6168 1.78163 15.671C1.77442 15.7007 1.72889 15.8185 1.68042 15.9328C1.63196 16.047 1.57111 16.2041 1.54521 16.2818C1.51929 16.3596 1.47026 16.494 1.43621 16.5805C1.40218 16.667 1.3503 16.8174 1.32092 16.9148C1.29154 17.0121 1.23112 17.1935 1.18664 17.3179C1.14219 17.4423 1.08477 17.6237 1.05909 17.721C1.03338 17.8184 0.971771 18.0263 0.922174 18.1832C0.872597 18.34 0.831927 18.4816 0.831849 18.4978C0.831751 18.514 0.779596 18.7264 0.715954 18.9697C0.652312 19.2131 0.594414 19.452 0.587303 19.5007C0.580193 19.5493 0.540676 19.7396 0.499498 19.9235C0.399894 20.3681 0.386142 20.4395 0.343285 20.734C0.323165 20.8722 0.271576 21.2244 0.22864 21.5166C0.185685 21.8088 0.140991 22.1628 0.129271 22.3032C0.11757 22.4436 0.0901248 22.7443 0.0682858 22.9715C0.00911743 23.5868 -0.00555258 24.0808 0.00171405 25.2132C0.00796492 26.1889 0.0191579 26.4459 0.0881714 27.1994C0.0990713 27.3183 0.117433 27.5351 0.128997 27.6811C0.153649 27.9927 0.216646 28.4371 0.384111 29.4804C0.396261 29.5562 0.4441 29.7918 0.490415 30.0041C0.53673 30.2164 0.580779 30.4333 0.588319 30.4859C0.595859 30.5386 0.641764 30.7321 0.690325 30.916C0.738887 31.0998 0.795321 31.3255 0.815753 31.4174C0.84984 31.5707 0.964895 31.9685 1.00914 32.086C1.01932 32.113 1.05274 32.2281 1.08341 32.3416C1.14342 32.5638 1.27607 32.967 1.40367 33.315C1.44729 33.434 1.50671 33.6021 1.53572 33.6887C1.56472 33.7752 1.62555 33.9345 1.67091 34.0426C1.71629 34.1508 1.76667 34.2835 1.78288 34.3376C1.79911 34.3917 1.82417 34.458 1.83859 34.4851C1.88916 34.5799 2.02323 34.8793 2.02323 34.8974C2.02323 34.9075 2.07597 35.0272 2.14043 35.1635C2.20489 35.2998 2.25763 35.4172 2.25763 35.4243C2.25763 35.4383 2.55726 36.0612 2.59565 36.1271C2.60827 36.1487 2.6766 36.2814 2.74751 36.422C2.94429 36.8123 3.0698 37.0473 3.14295 37.1628C3.17948 37.2204 3.21603 37.2897 3.22415 37.3168C3.2323 37.3438 3.2497 37.3792 3.26285 37.3954C3.29952 37.4407 3.43643 37.6731 3.46388 37.7367C3.47731 37.7678 3.52693 37.852 3.57414 37.9238C3.62134 37.9955 3.68398 38.0984 3.71332 38.1525C3.74268 38.2066 3.78976 38.2811 3.81795 38.318C3.84612 38.355 3.89556 38.4313 3.92779 38.4877C3.96002 38.5441 4.02827 38.6494 4.07947 38.7218C4.13067 38.7942 4.18987 38.8875 4.21105 38.9293C4.23222 38.9711 4.25934 39.0113 4.27131 39.0188C4.28327 39.0263 4.32524 39.0822 4.36457 39.143C4.48333 39.3269 4.77894 39.7418 4.83196 39.799C4.8593 39.8285 4.89999 39.8829 4.92238 39.9199C4.94476 39.9569 4.99825 40.0311 5.04122 40.0848C5.0842 40.1385 5.21867 40.312 5.34005 40.4703C5.46142 40.6286 5.5677 40.7581 5.5762 40.7581C5.58472 40.7581 5.60068 40.778 5.61169 40.8023C5.6314 40.8458 5.77035 41.0125 5.97225 41.2348C6.02868 41.297 6.08295 41.3624 6.09283 41.3801C6.10272 41.3979 6.14704 41.4496 6.19132 41.495C6.23563 41.5404 6.3334 41.6473 6.4086 41.7325C6.70206 42.0649 7.42554 42.8022 7.80647 43.1571C7.93997 43.2815 8.10639 43.4379 8.17631 43.5046C8.2462 43.5713 8.33662 43.6543 8.37721 43.689C8.41782 43.7238 8.48131 43.7798 8.51831 43.8135C8.55529 43.8473 8.64512 43.9262 8.71795 43.9889C8.79077 44.0516 8.91004 44.1551 8.983 44.2189C9.05596 44.2827 9.13287 44.3404 9.15392 44.3471C9.17496 44.3538 9.19219 44.3665 9.19219 44.3752C9.19219 44.384 9.26472 44.447 9.35335 44.5153C9.44199 44.5836 9.56285 44.6807 9.62194 44.7312C9.68103 44.7816 9.74821 44.8328 9.77122 44.845C9.79421 44.8571 9.86014 44.9078 9.91772 44.9576C9.97529 45.0074 10.0461 45.0607 10.075 45.076C10.104 45.0913 10.1499 45.1246 10.1771 45.1499C10.2043 45.1753 10.308 45.2517 10.4077 45.3198C10.5073 45.388 10.6108 45.4633 10.6377 45.4872C10.6646 45.5112 10.7037 45.5369 10.7247 45.5444C10.7458 45.552 10.8161 45.5982 10.881 45.6472C11.0193 45.7515 11.3324 45.9607 11.4413 46.0213C11.483 46.0446 11.5764 46.103 11.6488 46.1511C11.8426 46.28 12.0998 46.4413 12.2031 46.4988C12.2529 46.5266 12.3528 46.5847 12.425 46.6279C12.4972 46.6712 12.597 46.7272 12.6469 46.7523C12.6968 46.7775 12.7684 46.8191 12.806 46.8448C12.8913 46.9031 13.1586 47.0433 13.7241 47.3264C13.9658 47.4475 14.2119 47.5714 14.271 47.6018C14.3301 47.6322 14.4444 47.6839 14.525 47.7167C14.6055 47.7495 14.7531 47.8165 14.8528 47.8656C14.9525 47.9147 15.058 47.9609 15.0872 47.9682C15.1164 47.9755 15.215 48.0164 15.3063 48.0591C15.3976 48.1017 15.5515 48.1658 15.6482 48.2014C15.7449 48.237 15.8987 48.2982 15.99 48.3373C16.0813 48.3765 16.2 48.4209 16.2537 48.436C16.3074 48.4511 16.4217 48.4915 16.5077 48.5257C16.5936 48.5598 16.7343 48.6105 16.8202 48.6383C16.9062 48.666 17.0894 48.7283 17.2275 48.7768C17.3655 48.8253 17.5545 48.885 17.6475 48.9094C17.7404 48.9338 17.9439 48.994 18.0997 49.0431C18.2555 49.0922 18.4796 49.1548 18.5978 49.1823C18.716 49.2097 18.9434 49.2672 19.1033 49.31C19.2631 49.3528 19.4389 49.3936 19.494 49.4008C19.549 49.4079 19.6424 49.4258 19.7015 49.4404C19.941 49.4998 20.4693 49.6083 20.6129 49.6276C20.6971 49.639 20.9243 49.6739 21.1177 49.7054C21.6931 49.7989 22.036 49.8441 22.3874 49.8728C22.57 49.8878 22.8865 49.9135 23.0906 49.9301C24.2394 50.0233 25.843 50.0233 26.9095 49.9302C27.0975 49.9138 27.3964 49.888 27.5737 49.8728C27.7509 49.8576 27.9663 49.8355 28.0522 49.8237C28.4091 49.7745 28.6341 49.7407 28.902 49.6961C29.0577 49.6702 29.2379 49.6431 29.3024 49.6359C29.3669 49.6287 29.6086 49.5827 29.8396 49.5337C30.0706 49.4847 30.3475 49.4286 30.4549 49.4089C30.5623 49.3893 30.7689 49.3414 30.914 49.3026C31.059 49.2638 31.2744 49.2096 31.3925 49.1822C31.5107 49.1548 31.7349 49.0922 31.8907 49.0432C32.0464 48.9941 32.2222 48.9415 32.2813 48.9263C32.4429 48.8847 33.0995 48.6689 33.3655 48.5699C33.4944 48.522 33.6526 48.4667 33.7171 48.4471C33.7815 48.4275 33.9002 48.3832 33.9808 48.3488C34.0614 48.3143 34.2064 48.2567 34.3031 48.2206C34.4647 48.1603 34.6285 48.0898 34.8318 47.9931C34.8755 47.9723 34.9216 47.9553 34.9343 47.9553C34.9471 47.9553 35.0651 47.9022 35.1967 47.8373C35.3283 47.7724 35.4438 47.7193 35.4534 47.7193C35.4709 47.7193 35.9569 47.4867 36.1393 47.391C36.193 47.3628 36.3468 47.2841 36.4811 47.216C36.6154 47.1479 36.7473 47.0788 36.7742 47.0624C36.801 47.046 36.8581 47.0159 36.9011 46.9955C36.9441 46.9751 37.0364 46.9248 37.1062 46.8837C37.1761 46.8427 37.2947 46.7767 37.3699 46.7371C37.4451 46.6975 37.5634 46.628 37.6326 46.5826C37.7019 46.5373 37.7661 46.5001 37.7753 46.5001C37.7845 46.5001 37.864 46.4526 37.9521 46.3945C38.0402 46.3364 38.143 46.2733 38.1806 46.2542C38.2182 46.2351 38.2978 46.1852 38.3575 46.1433C38.4172 46.1014 38.5019 46.0473 38.5457 46.0231C38.6466 45.9672 39.0457 45.6996 39.1664 45.6069C39.2167 45.5682 39.2691 45.5366 39.2827 45.5366C39.2964 45.5366 39.3229 45.5195 39.3416 45.4986C39.3604 45.4777 39.4627 45.4014 39.569 45.329C39.6754 45.2566 39.7849 45.1763 39.8125 45.1506C39.8401 45.1249 39.889 45.0901 39.9213 45.0733C39.9536 45.0565 40.0125 45.0134 40.0521 44.9776C40.0918 44.9417 40.1602 44.8869 40.2042 44.8558C40.3303 44.7665 40.6829 44.4864 40.7678 44.4081C40.8102 44.369 40.851 44.337 40.8586 44.337C40.8662 44.337 40.9326 44.2841 41.0062 44.2195C41.0798 44.1549 41.1999 44.0509 41.2731 43.9885C41.8366 43.5078 42.449 42.9224 43.0836 42.2577C43.4118 41.9139 43.5069 41.811 43.7969 41.4857C43.8692 41.4045 43.9712 41.2917 44.0236 41.235C44.076 41.1782 44.1191 41.1251 44.1194 41.117C44.1196 41.1089 44.1766 41.0403 44.2461 40.9646C44.3156 40.8888 44.3726 40.8203 44.3727 40.8121C44.3728 40.804 44.3897 40.7804 44.4103 40.7597C44.4611 40.7086 44.8202 40.2539 44.8776 40.1681C44.9029 40.1303 44.9526 40.0683 44.9879 40.0305C45.0233 39.9926 45.0659 39.9351 45.0826 39.9027C45.0992 39.8702 45.1364 39.8171 45.1651 39.7847C45.2267 39.7151 45.5097 39.3203 45.5937 39.1867C45.626 39.1355 45.6812 39.0544 45.7166 39.0065C45.8342 38.8471 45.9935 38.6059 46.0419 38.5142C46.0682 38.4644 46.1102 38.398 46.1354 38.3667C46.1885 38.3006 46.2629 38.1824 46.3147 38.0822C46.3347 38.0435 46.3761 37.9771 46.4066 37.9347C46.4371 37.8923 46.4871 37.8089 46.5176 37.7494C46.5481 37.6899 46.614 37.5774 46.664 37.4993C46.714 37.4212 46.7671 37.3283 46.7818 37.2928C46.7966 37.2573 46.8394 37.1796 46.877 37.1201C46.9146 37.0606 46.9818 36.939 47.0262 36.8498C47.0706 36.7607 47.1274 36.6545 47.1524 36.6139C47.2109 36.5188 47.703 35.5134 47.7228 35.4486C47.7311 35.4216 47.7707 35.3331 47.8108 35.252C47.8509 35.1709 47.915 35.0249 47.9533 34.9275C47.9916 34.8302 48.0356 34.724 48.0512 34.6916C48.1292 34.5289 48.4206 33.7961 48.446 33.6985C48.453 33.6715 48.5054 33.5254 48.5623 33.374C48.6967 33.0162 48.9941 32.0817 49.1098 31.6534C49.2025 31.3103 49.3903 30.5592 49.4024 30.4833C49.4092 30.4401 49.4619 30.1835 49.5194 29.9131C49.5769 29.6427 49.6297 29.3684 49.6368 29.3035C49.6438 29.2386 49.6669 29.0837 49.6881 28.9593C49.768 28.4906 49.8448 27.9149 49.873 27.573C49.8891 27.3783 49.915 27.0642 49.9305 26.8749C50.0247 25.725 50.0161 23.941 49.9112 22.8633C49.8959 22.7065 49.878 22.4985 49.8715 22.4012C49.8561 22.1745 49.7787 21.5765 49.706 21.123C49.6749 20.9283 49.6348 20.6761 49.6171 20.5626C49.5994 20.449 49.5471 20.188 49.5009 19.9825C49.4547 19.777 49.4109 19.569 49.4036 19.5203C49.3462 19.1362 48.8267 17.3282 48.5872 16.6788C48.5433 16.5598 48.4836 16.3917 48.4546 16.3052C48.4256 16.2187 48.3648 16.0594 48.3194 15.9512C48.274 15.8431 48.2237 15.7103 48.2075 15.6563C48.1912 15.6022 48.1662 15.5358 48.1517 15.5088C48.1008 15.4133 47.9671 15.1145 47.9671 15.0962C47.9671 15.086 47.9144 14.9678 47.8499 14.8335C47.7854 14.6993 47.7327 14.5827 47.7327 14.5745C47.7327 14.5545 47.4952 14.0603 47.3218 13.7193C47.2915 13.6598 47.2513 13.5757 47.2323 13.5325C47.2133 13.4892 47.1764 13.419 47.1502 13.3765C47.124 13.3339 47.063 13.2189 47.0146 13.1208C46.9662 13.0228 46.901 12.9049 46.8696 12.8589C46.8383 12.8129 46.7976 12.7421 46.7791 12.7016C46.7357 12.6062 46.6433 12.4476 46.5862 12.3704C46.5614 12.337 46.5411 12.3002 46.5411 12.2888C46.5411 12.2774 46.5094 12.2207 46.4707 12.1628C46.432 12.105 46.3567 11.9834 46.3034 11.8926C46.2501 11.8018 46.1727 11.6779 46.1315 11.6173C46.0902 11.5566 45.9699 11.3758 45.8641 11.2153C45.7584 11.0548 45.6411 10.8768 45.6035 10.8198C45.4569 10.5974 45.2224 10.2688 45.151 10.1858C45.1098 10.1378 45.0761 10.0875 45.0761 10.074C45.0761 10.0605 45.0491 10.0234 45.0161 9.99162C44.9832 9.95986 44.9326 9.89818 44.9038 9.85456C44.7525 9.62543 44.3191 9.09492 43.7878 8.48852C43.087 7.68874 42.1319 6.746 41.267 6.0004C41.1971 5.94021 41.0803 5.83876 41.0073 5.77497C40.9344 5.71116 40.8575 5.65346 40.8364 5.64674C40.8154 5.64001 40.7981 5.62666 40.7981 5.61706C40.7981 5.60167 40.3549 5.2407 40.2446 5.16621C40.2214 5.15054 40.1547 5.09745 40.0964 5.04823C40.0381 4.999 39.9619 4.94103 39.927 4.9194C39.8921 4.89777 39.8062 4.83583 39.7361 4.78175C39.6039 4.67981 39.4034 4.53693 39.2254 4.41796C39.1688 4.3801 39.0886 4.32423 39.0471 4.29383C38.9322 4.20953 38.6127 3.99855 38.5545 3.96854C38.5261 3.95391 38.4326 3.89502 38.3466 3.83767C38.189 3.73251 37.9926 3.61208 37.8017 3.50355C37.7447 3.47111 37.633 3.40498 37.5535 3.3566C37.474 3.30821 37.3654 3.24803 37.3122 3.22286C37.2589 3.19769 37.2032 3.16648 37.1885 3.15351C37.1277 3.10004 35.5099 2.27452 35.4659 2.27452C35.4552 2.27452 35.34 2.22142 35.2098 2.15653C35.0797 2.09164 34.9652 2.03854 34.9554 2.03854C34.9339 2.03854 34.5652 1.88225 34.5375 1.86141C34.5268 1.85332 34.4477 1.82253 34.3617 1.79299C34.2758 1.76346 34.1175 1.70159 34.0101 1.6555C33.9027 1.60942 33.784 1.56522 33.7464 1.55725C33.7088 1.54929 33.6516 1.53094 33.6194 1.51647C33.4858 1.45651 33.191 1.34757 33.0922 1.32167C33.0339 1.30639 32.887 1.25806 32.7657 1.21426C32.6443 1.17049 32.4659 1.11327 32.3692 1.08713C32.2725 1.06098 32.1341 1.02102 32.0616 0.998288C31.9891 0.975576 31.8704 0.93837 31.7979 0.915599C31.7253 0.892847 31.5957 0.858218 31.5097 0.838671C31.4238 0.819125 31.204 0.762589 31.0214 0.713034C30.8388 0.66346 30.597 0.605646 30.4842 0.584526C30.3714 0.563426 30.0989 0.50693 29.8787 0.459027C29.6584 0.411104 29.3815 0.358207 29.2633 0.341453C29.1452 0.324698 28.8067 0.275104 28.5113 0.231252C28.2158 0.1874 27.8642 0.142349 27.7299 0.13114C27.5956 0.119931 27.3009 0.0927548 27.075 0.0707305C26.8492 0.0487258 26.4844 0.0236732 26.2644 0.0150601C25.7615 -0.00460447 24.0663 -0.00515507 23.6766 0.0142539ZM25.9719 0.642065C26.5552 0.668514 27.1396 0.712523 27.5453 0.760583C27.7274 0.782135 27.9995 0.812576 28.1499 0.82819C28.4368 0.857982 28.981 0.944742 29.3796 1.02419C29.509 1.04999 29.6589 1.07703 29.7126 1.08426C29.8221 1.09899 30.1273 1.16668 30.4647 1.251C30.5882 1.28189 30.7289 1.31316 30.7772 1.32047C30.8256 1.32779 31.0102 1.37414 31.1874 1.42346C31.3647 1.47279 31.5806 1.52927 31.6671 1.54897C31.7537 1.56868 31.9453 1.62502 32.093 1.67418C32.2407 1.72334 32.4203 1.78037 32.4923 1.8009C32.6418 1.84353 33.2968 2.06763 33.385 2.10629C33.511 2.16155 33.8618 2.29418 33.8819 2.29418C33.8936 2.29418 34.0019 2.33925 34.1227 2.39433C34.2434 2.44942 34.3729 2.50343 34.4105 2.51435C34.4821 2.53515 34.564 2.57027 34.7915 2.67784C34.8667 2.71339 34.9476 2.74828 34.9713 2.75538C35.0222 2.7706 35.5827 3.03874 35.8756 3.18806C36.3609 3.43544 36.7079 3.619 36.7357 3.64315C36.7522 3.65743 36.8138 3.69139 36.8725 3.71863C36.9312 3.74586 37.0276 3.79907 37.0867 3.83689C37.1458 3.87468 37.2425 3.93092 37.3016 3.96188C37.4883 4.05965 37.7803 4.2393 38.247 4.54353C38.3318 4.59885 38.4503 4.6735 38.5104 4.70944C38.5704 4.74537 38.6246 4.78305 38.6309 4.79318C38.6412 4.80997 38.9099 4.99902 39.1768 5.17726C39.2359 5.21673 39.3167 5.27832 39.3563 5.31415C39.396 5.34998 39.4575 5.39428 39.4931 5.41259C39.5287 5.4309 39.5894 5.47343 39.6282 5.5071C39.6986 5.56827 39.9502 5.76052 40.1365 5.89545C40.1908 5.93476 40.2674 5.99755 40.3067 6.03497C40.346 6.0724 40.4111 6.1228 40.4514 6.147C40.4917 6.17119 40.5373 6.2091 40.5527 6.23125C40.5681 6.25339 40.6187 6.29944 40.665 6.33362C40.7114 6.3678 40.7933 6.43637 40.847 6.48602C40.9007 6.53565 41.0721 6.68937 41.2279 6.82757C41.9041 7.42748 42.6231 8.14661 43.2116 8.81149C43.4387 9.06815 43.4349 9.06381 43.5622 9.21513C43.6267 9.29178 43.73 9.41164 43.7917 9.48144C43.8535 9.55127 43.9041 9.61526 43.9043 9.62366C43.9044 9.63204 43.9451 9.68314 43.9948 9.73722C44.0444 9.7913 44.1037 9.86313 44.1264 9.89684C44.1492 9.93054 44.2205 10.0249 44.285 10.1066C44.526 10.4119 44.5787 10.4817 44.6053 10.5316C44.6204 10.5598 44.6819 10.6462 44.7421 10.7237C44.8935 10.9187 45.0809 11.1824 45.1109 11.2426C45.1246 11.2703 45.1714 11.3361 45.2147 11.3889C45.258 11.4417 45.3029 11.5032 45.3145 11.5255C45.326 11.5478 45.3847 11.6411 45.445 11.7328C45.5053 11.8246 45.581 11.945 45.6133 12.0005C45.6455 12.056 45.6982 12.1428 45.7305 12.1935C45.9456 12.5318 45.9997 12.6212 46.0527 12.7262C46.0855 12.7911 46.1468 12.8973 46.1889 12.9622C46.231 13.0271 46.2922 13.1333 46.3249 13.1982C46.3576 13.2631 46.4458 13.4312 46.5209 13.5718C46.7182 13.941 47.2162 14.9568 47.2522 15.0635C47.269 15.1135 47.3041 15.1965 47.3302 15.248C47.3995 15.3847 47.4728 15.5507 47.4889 15.6071C47.4966 15.6341 47.5207 15.6961 47.5425 15.7447C47.6322 15.9456 47.7132 16.1427 47.7132 16.16C47.7132 16.1702 47.765 16.3132 47.8284 16.4778C47.8918 16.6424 47.9703 16.8568 48.0029 16.9541C48.0354 17.0515 48.0927 17.2196 48.1302 17.3277C48.2173 17.579 48.4191 18.244 48.4704 18.4486C48.492 18.5351 48.545 18.7298 48.5882 18.8812C48.6314 19.0327 48.6729 19.1964 48.6803 19.245C48.6878 19.2937 48.7195 19.4397 48.7508 19.5695C48.8367 19.9255 48.9012 20.2267 48.9152 20.3364C48.9221 20.3905 48.9448 20.5232 48.9657 20.6314C49.0525 21.0804 49.1415 21.6359 49.1678 21.8919C49.1832 22.0422 49.2136 22.3245 49.2353 22.5192C49.4079 24.0684 49.4044 26.0394 49.2264 27.5632C49.2106 27.6983 49.1843 27.9373 49.168 28.0941C49.14 28.364 49.0767 28.7615 48.9737 29.3133C48.9485 29.4485 48.9222 29.6033 48.9153 29.6574C48.9004 29.7733 48.8269 30.1167 48.7489 30.4342C48.7184 30.5586 48.6874 30.7001 48.6801 30.7488C48.6728 30.7975 48.6149 31.0224 48.5514 31.2485C48.4879 31.4747 48.4359 31.6712 48.4359 31.6851C48.4359 31.6991 48.3832 31.8706 48.3187 32.0663C48.2543 32.262 48.2015 32.4334 48.2015 32.4472C48.2015 32.461 48.1524 32.6044 48.0924 32.7658C48.0324 32.9273 47.9717 33.1036 47.9576 33.1577C47.9436 33.2118 47.8993 33.3357 47.8594 33.433C47.8195 33.5304 47.7623 33.6808 47.7323 33.7673C47.7022 33.8538 47.6409 34.0087 47.5959 34.1115C47.551 34.2142 47.5053 34.3289 47.4944 34.3663C47.4836 34.4037 47.4273 34.5355 47.3693 34.6592C47.3113 34.7829 47.2639 34.8922 47.2639 34.9019C47.2639 34.9547 46.5401 36.4083 46.384 36.669C46.3415 36.74 46.3067 36.8048 46.3067 36.8131C46.3067 36.8321 46.1565 37.0907 46.0999 37.1693C46.0765 37.2017 46.0506 37.2504 46.0425 37.2774C46.0343 37.3045 46.0079 37.3532 45.9838 37.3856C45.9597 37.418 45.8917 37.5295 45.8325 37.6332C45.7734 37.737 45.6933 37.8664 45.6545 37.9207C45.6157 37.9751 45.584 38.0274 45.584 38.037C45.584 38.0466 45.5362 38.1207 45.4779 38.2018C45.4196 38.2828 45.3536 38.3852 45.3313 38.4293C45.309 38.4734 45.2637 38.5397 45.2306 38.5768C45.1975 38.6138 45.1472 38.684 45.1189 38.7326C45.0681 38.8199 44.9151 39.0325 44.8666 39.0831C44.8529 39.0974 44.8417 39.1185 44.8417 39.13C44.8417 39.1416 44.7949 39.2095 44.7376 39.281C44.6804 39.3526 44.6166 39.4386 44.596 39.4723C44.5593 39.5321 44.5222 39.5809 44.2508 39.9265C44.1782 40.0189 44.1189 40.1004 44.1189 40.1077C44.1189 40.115 44.079 40.1604 44.0302 40.2085C43.9815 40.2566 43.928 40.3213 43.9113 40.3524C43.8947 40.3834 43.8294 40.4675 43.7661 40.5392C43.7029 40.6109 43.6003 40.7293 43.5383 40.8024C43.4762 40.8754 43.4071 40.955 43.3847 40.9793C43.3622 41.0037 43.3016 41.0722 43.2499 41.1317C42.8046 41.6443 41.8231 42.6362 41.306 43.0962C41.1073 43.2731 40.9007 43.4582 40.847 43.5077C40.7933 43.5572 40.7185 43.6194 40.6809 43.6459C40.6433 43.6725 40.5774 43.7283 40.5344 43.7701C40.4915 43.8119 40.4331 43.8614 40.4047 43.8802C40.3763 43.8989 40.2998 43.9585 40.2347 44.0126C40.1696 44.0666 40.0434 44.1664 39.9543 44.2343C39.8651 44.3022 39.745 44.3951 39.6873 44.4408C39.6296 44.4865 39.5417 44.5489 39.4919 44.5796C39.4422 44.6103 39.3751 44.6604 39.3429 44.6908C39.3106 44.7212 39.2447 44.7713 39.1964 44.8021C39.148 44.8329 39.0572 44.898 38.9945 44.9466C38.9318 44.9953 38.8527 45.0504 38.8187 45.0692C38.7847 45.0879 38.6997 45.1439 38.6299 45.1935C38.4861 45.2956 38.157 45.5107 37.8851 45.6802C37.4427 45.9559 37.3858 45.9902 37.3211 46.0201C37.2579 46.0492 37.1055 46.1428 36.989 46.2239C36.9622 46.2426 36.9078 46.2687 36.8681 46.2818C36.8285 46.295 36.7758 46.3216 36.7509 46.3411C36.7261 46.3606 36.6399 46.4096 36.5593 46.4501C36.4787 46.4906 36.3732 46.545 36.3249 46.5711C36.2765 46.5972 36.048 46.7124 35.817 46.8272C35.586 46.9419 35.3023 47.0834 35.1866 47.1416C35.071 47.1998 34.9644 47.2474 34.9498 47.2474C34.9352 47.2474 34.8204 47.296 34.6947 47.3555C34.5689 47.415 34.457 47.4637 34.4461 47.4637C34.4351 47.4637 34.3193 47.511 34.1888 47.5687C34.0583 47.6265 33.8768 47.6983 33.7855 47.7283C33.6941 47.7582 33.6106 47.7892 33.5999 47.797C33.5652 47.8224 32.5198 48.1917 32.4834 48.1914C32.471 48.1913 32.3127 48.2396 32.1318 48.2987C31.9508 48.3578 31.7324 48.4231 31.6465 48.4438C31.5605 48.4645 31.3408 48.5218 31.1581 48.5712C30.7386 48.6846 29.9343 48.8711 29.7419 48.8997C29.6613 48.9116 29.4855 48.9425 29.3512 48.9682C28.8526 49.0638 28.3961 49.1373 28.1304 49.1648C27.98 49.1804 27.7075 49.2105 27.5248 49.2317C26.7085 49.3266 25.7118 49.3719 24.6924 49.3602C23.7165 49.349 23.0169 49.3064 22.2897 49.2139C22.1286 49.1934 21.8999 49.1673 21.7816 49.1558C21.5797 49.1363 20.7682 49.0033 20.5651 48.9565C20.5145 48.9448 20.3868 48.9228 20.2814 48.9077C20.1761 48.8926 19.8901 48.8314 19.6459 48.7717C19.4017 48.712 19.1855 48.6632 19.1653 48.6632C19.1451 48.6632 18.9608 48.6152 18.7558 48.5565C18.5507 48.4978 18.3522 48.4439 18.3146 48.4367C18.277 48.4294 18.1099 48.3787 17.9434 48.3241C17.7769 48.2694 17.5835 48.2093 17.5137 48.1905C17.354 48.1474 16.5276 47.8601 16.3709 47.7931C16.3065 47.7656 16.2098 47.7299 16.156 47.7138C16.1023 47.6977 15.9426 47.6349 15.8011 47.5741C15.6596 47.5134 15.5353 47.4637 15.5248 47.4637C15.5142 47.4637 15.4079 47.415 15.2885 47.3555C15.1691 47.296 15.0607 47.2474 15.0476 47.2474C14.9989 47.2474 13.3237 46.4081 13.2394 46.3414C13.2145 46.3218 13.1629 46.2953 13.1246 46.2826C13.0863 46.2699 13.0187 46.2356 12.9744 46.2063C12.752 46.0596 12.6997 46.0282 12.6786 46.0282C12.6659 46.0282 12.6213 46.0032 12.5794 45.9727C12.5375 45.9421 12.4153 45.8652 12.3079 45.8017C12.2004 45.7382 12.0719 45.657 12.0223 45.6212C11.9727 45.5855 11.9251 45.5562 11.9167 45.5562C11.901 45.5562 11.6321 45.3793 11.6144 45.3573C11.609 45.3507 11.5695 45.3269 11.5265 45.3045C11.4835 45.2822 11.3956 45.2235 11.3312 45.1743C11.2667 45.125 11.2033 45.0846 11.1902 45.0845C11.1772 45.0844 11.1376 45.0593 11.1023 45.0287C11.067 44.9982 10.9634 44.9219 10.8721 44.8594C10.7808 44.7968 10.6797 44.721 10.6475 44.6911C10.6152 44.6612 10.5493 44.6125 10.501 44.583C10.4526 44.5535 10.4042 44.5193 10.3933 44.5069C10.3653 44.4751 10.2124 44.3567 10.1993 44.3567C10.1932 44.3567 10.113 44.2947 10.021 44.219C9.92903 44.1433 9.84773 44.0814 9.84039 44.0814C9.83304 44.0814 9.78747 44.0448 9.73914 44.0001C9.69079 43.9554 9.61987 43.8988 9.5815 43.8743C9.54316 43.8498 9.48602 43.8019 9.45453 43.7679C9.42306 43.7339 9.35114 43.675 9.29474 43.637C9.23835 43.5991 9.19219 43.5614 9.19219 43.5533C9.19219 43.5452 9.13109 43.488 9.05643 43.4262C8.74439 43.1678 8.26896 42.7204 7.73656 42.1843C7.42482 41.8703 7.12985 41.5692 7.0811 41.5152C6.87517 41.2867 6.53838 40.914 6.44868 40.8153C6.39551 40.7568 6.33513 40.6824 6.31453 40.6499C6.2939 40.6175 6.2341 40.545 6.18165 40.4889C6.12921 40.4327 6.08629 40.3783 6.08629 40.368C6.08629 40.3577 6.0457 40.3063 5.9961 40.2538C5.94649 40.2013 5.89173 40.1362 5.87441 40.1091C5.85708 40.0821 5.7898 39.9936 5.72491 39.9125C5.66002 39.8314 5.59167 39.7409 5.57304 39.7115C5.5544 39.682 5.49965 39.6132 5.45134 39.5584C5.40305 39.5037 5.36346 39.4481 5.36336 39.435C5.36326 39.4218 5.31911 39.3592 5.26526 39.2959C5.2114 39.2325 5.15815 39.1634 5.14692 39.1423C5.13569 39.1212 5.07654 39.0356 5.0155 38.952C4.95443 38.8685 4.8957 38.7855 4.88495 38.7676C4.86194 38.7293 4.6274 38.3778 4.60573 38.3492C4.56379 38.2938 4.40723 38.0463 4.38021 37.9926C4.36314 37.9588 4.32778 37.9055 4.30165 37.8742C4.27549 37.8429 4.234 37.7777 4.20945 37.7293C4.18487 37.6809 4.1183 37.5695 4.06148 37.4817C4.00465 37.394 3.94984 37.3001 3.93964 37.2731C3.92945 37.2462 3.89091 37.1764 3.85401 37.118C3.81709 37.0597 3.7494 36.9412 3.70358 36.8547C3.65777 36.7681 3.60905 36.6841 3.59532 36.6678C3.57131 36.6395 3.04686 35.6021 2.93419 35.3601C2.90397 35.2953 2.85852 35.2023 2.83316 35.1537C2.80783 35.105 2.76852 35.0165 2.74583 34.957C2.72315 34.8975 2.67982 34.7958 2.64958 34.7309C2.53574 34.4867 2.51351 34.4344 2.5005 34.3804C2.49313 34.3499 2.43987 34.2216 2.38214 34.0953C2.3244 33.969 2.27717 33.8543 2.27717 33.8404C2.27717 33.8265 2.22513 33.6805 2.16155 33.5159C2.09796 33.3514 2.01516 33.1238 1.97756 33.0102C1.93995 32.8967 1.87819 32.7108 1.84031 32.5973C1.72406 32.2488 1.55992 31.7109 1.51923 31.5452C1.498 31.4587 1.44529 31.264 1.4021 31.1126C1.35893 30.9612 1.31742 30.7975 1.30986 30.7488C1.3023 30.7001 1.25283 30.4804 1.19993 30.2606C1.14703 30.0407 1.09122 29.7753 1.07593 29.6706C1.06063 29.566 1.01682 29.3123 0.978549 29.1068C0.896546 28.6664 0.839702 28.299 0.821828 28.0941C0.814757 28.013 0.792312 27.8094 0.771938 27.6418C0.614006 26.3424 0.582732 24.4916 0.695658 23.1288C0.76684 22.2698 0.863396 21.5079 0.980991 20.8772C1.01828 20.6771 1.06118 20.4278 1.0763 20.3231C1.0914 20.2184 1.14398 19.9662 1.19311 19.7626C1.24224 19.5591 1.29486 19.3262 1.31006 19.245C1.32526 19.1639 1.36878 18.9869 1.40677 18.8517C1.44477 18.7166 1.49499 18.5307 1.51839 18.4388C1.54179 18.3469 1.61221 18.1111 1.67488 17.9148C1.73754 17.7185 1.78894 17.546 1.78909 17.5313C1.78925 17.5167 1.82056 17.4207 1.85867 17.3179C1.8968 17.2152 1.95454 17.0515 1.98699 16.9541C2.01944 16.8568 2.098 16.6425 2.16158 16.4779C2.22515 16.3133 2.27717 16.169 2.27717 16.1572C2.27717 16.1454 2.32481 16.0234 2.38304 15.8862C2.44129 15.7489 2.49517 15.6145 2.50278 15.5874C2.51038 15.5604 2.55896 15.4498 2.61073 15.3416C2.66247 15.2335 2.72719 15.0875 2.7545 15.0172C2.78183 14.9469 2.9329 14.6327 3.09025 14.3191C3.34696 13.8073 3.44743 13.6104 3.65205 13.2178C3.73622 13.0564 3.81943 12.9147 3.87165 12.8441C3.89567 12.8116 3.92497 12.7595 3.93675 12.7284C3.94853 12.6972 4.00627 12.5981 4.06507 12.5083C4.12385 12.4184 4.17196 12.3367 4.17196 12.3267C4.17196 12.3083 4.35048 12.0298 4.51885 11.7856C4.56979 11.7117 4.63199 11.6144 4.65703 11.5693C4.68209 11.5242 4.73567 11.4431 4.77609 11.389C4.8165 11.335 4.9015 11.2136 4.96494 11.1194C5.02839 11.0251 5.10807 10.907 5.14204 10.8568C5.17599 10.8066 5.22564 10.7422 5.25237 10.7135C5.27909 10.6849 5.31919 10.6305 5.34146 10.5926C5.38131 10.525 5.46314 10.4161 5.71528 10.0955C5.78517 10.0066 5.857 9.91092 5.87487 9.88286C5.89277 9.85482 5.93289 9.80615 5.96405 9.7747C5.9952 9.74328 6.05465 9.66889 6.09614 9.6094C6.13763 9.54992 6.19195 9.48512 6.21686 9.4654C6.24174 9.44567 6.28493 9.39038 6.31281 9.34249C6.34068 9.29461 6.37004 9.25544 6.37805 9.25544C6.38606 9.25544 6.44978 9.18685 6.51965 9.10304C6.99526 8.53253 7.92983 7.5743 8.63545 6.93362C8.80733 6.77757 8.96337 6.63441 8.98218 6.61547C9.00099 6.59655 9.02328 6.58106 9.03172 6.58106C9.04016 6.58106 9.09069 6.53648 9.14404 6.48199C9.19739 6.4275 9.263 6.37083 9.28986 6.35606C9.31672 6.34127 9.37237 6.29516 9.41355 6.25357C9.45471 6.21197 9.52183 6.15581 9.56271 6.12877C9.60358 6.10173 9.69005 6.03537 9.75487 5.98129C9.8197 5.92721 9.94839 5.82545 10.0409 5.75515C10.1333 5.68485 10.2537 5.59193 10.3083 5.54867C10.363 5.50541 10.4352 5.45314 10.469 5.43251C10.5027 5.41188 10.5704 5.3618 10.6196 5.32123C10.6686 5.28066 10.7478 5.22234 10.7954 5.1916C10.8429 5.16086 10.9333 5.09589 10.9962 5.04722C11.0591 4.99855 11.1479 4.93661 11.1934 4.90957C11.2389 4.88253 11.3081 4.83386 11.3471 4.80142C11.3861 4.76897 11.4559 4.7203 11.5022 4.69326C11.5773 4.64933 11.6429 4.60737 11.9782 4.38846C12.028 4.35601 12.1313 4.2924 12.2078 4.24711C12.2843 4.2018 12.4101 4.12413 12.4874 4.07451C12.5647 4.02488 12.6603 3.97063 12.7 3.95395C12.7397 3.93726 12.7952 3.9076 12.8233 3.88804C12.9543 3.79683 13.0599 3.73235 13.0985 3.72002C13.1217 3.71261 13.2077 3.66663 13.2897 3.61784C13.3717 3.56906 13.5095 3.49518 13.5961 3.45366C13.6826 3.41215 13.7929 3.35552 13.8413 3.32783C13.8896 3.30014 13.9951 3.24611 14.0757 3.20776C14.1563 3.16941 14.253 3.12096 14.2906 3.10008C14.4155 3.0307 14.9634 2.77207 15.0351 2.74861C15.0739 2.73591 15.1926 2.68272 15.2988 2.63039C15.405 2.57808 15.5227 2.52868 15.5603 2.52062C15.5979 2.51256 15.6374 2.4993 15.6482 2.4912C15.6782 2.46849 15.9786 2.34317 16.1854 2.26705C16.2874 2.22949 16.4325 2.1748 16.5077 2.14554C16.75 2.05129 17.3633 1.83848 17.4941 1.8033C17.564 1.7845 17.7589 1.72356 17.9272 1.66787C18.0956 1.61216 18.2458 1.56659 18.2609 1.56659C18.2761 1.56659 18.4572 1.51828 18.6634 1.45925C18.8696 1.40019 19.071 1.34625 19.1111 1.33939C19.1511 1.33253 19.3866 1.2791 19.6344 1.22067C19.8822 1.16225 20.1678 1.10186 20.2692 1.08646C20.3706 1.07109 20.5942 1.03134 20.7661 0.99817C21.1683 0.920535 21.6443 0.844905 21.8307 0.828976C21.9112 0.822094 22.109 0.799617 22.2702 0.779048C23.2708 0.651228 24.8695 0.592058 25.9719 0.642065ZM16.1398 15.0499C16.1326 15.0571 16.1267 18.672 16.1267 23.0829V31.1028H18.1094H20.0921L20.0953 28.0302C20.097 26.3403 20.1009 24.8912 20.1039 24.8101C20.1068 24.729 20.1098 24.4436 20.1105 24.1759C20.1119 23.6124 20.1072 23.6225 20.2837 23.7974C20.3437 23.8569 20.3993 23.9055 20.407 23.9055C20.4148 23.9055 20.4461 23.93 20.4764 23.96C20.5068 23.9899 20.6141 24.0839 20.7148 24.1689C20.8155 24.2539 20.9131 24.3378 20.9316 24.3554C20.9501 24.3729 21.0105 24.4225 21.0659 24.4656C21.1212 24.5086 21.1665 24.5506 21.1665 24.5588C21.1665 24.567 21.2145 24.6058 21.2732 24.645C21.3318 24.6842 21.3932 24.7369 21.4096 24.7621C21.426 24.7872 21.4769 24.834 21.5227 24.866C21.5685 24.898 21.6499 24.9649 21.7034 25.0148C21.757 25.0646 21.8163 25.1103 21.8353 25.1164C21.8542 25.1224 21.8697 25.1343 21.8697 25.1426C21.8697 25.151 21.9247 25.2038 21.9918 25.2599C22.2147 25.4461 22.2865 25.5078 22.328 25.5491C22.3507 25.5716 22.384 25.5983 22.4021 25.6086C22.4202 25.6188 22.4886 25.6756 22.5541 25.7348C22.815 25.9709 22.8985 26.0432 22.9734 26.0973C23.0164 26.1283 23.0721 26.179 23.0972 26.2099C23.1223 26.2408 23.1663 26.2787 23.1949 26.2942C23.2235 26.3096 23.2994 26.3714 23.3637 26.4314C23.4279 26.4915 23.4877 26.5406 23.4965 26.5406C23.5053 26.5406 23.5318 26.5607 23.5555 26.5854C23.5791 26.61 23.6434 26.6673 23.6984 26.7128L23.7982 26.7954L23.8105 26.6926C23.8173 26.636 23.8229 26.0888 23.823 25.4766L23.8231 24.3634L23.7163 24.292C23.5911 24.2083 23.5525 24.1553 23.5172 24.018C23.4946 23.9306 23.4954 23.9022 23.5232 23.8025C23.5487 23.711 23.5732 23.6717 23.6431 23.6098C23.6914 23.5669 23.7418 23.5319 23.7551 23.5319C23.7684 23.5319 23.7884 23.5209 23.7995 23.5073C23.8126 23.4914 23.8221 23.1563 23.8263 22.5552C23.8299 22.0451 23.8397 21.6209 23.848 21.6126C23.8562 21.6042 23.9019 21.6359 23.9495 21.6828L24.036 21.7683L24.0421 19.7643C24.0454 18.6621 24.0556 17.7449 24.0647 17.726C24.091 17.6711 24.1462 17.6858 24.2047 17.763C24.2345 17.8024 24.4126 18.0037 24.6005 18.2104C24.7884 18.4171 25.009 18.6609 25.0907 18.7521C25.1725 18.8433 25.3002 18.9849 25.3745 19.0667C25.5764 19.2891 25.7102 19.4375 25.8326 19.5749C25.8931 19.6428 25.9997 19.7596 26.0695 19.8344C26.1394 19.9092 26.246 20.0262 26.3065 20.0944C26.3671 20.1626 26.4755 20.2848 26.5474 20.3659C26.6194 20.447 26.7112 20.5488 26.7515 20.5921C26.7918 20.6353 26.912 20.7681 27.0184 20.887C27.1249 21.006 27.2625 21.1564 27.3242 21.2213C27.386 21.2862 27.4365 21.3496 27.4367 21.3623C27.4368 21.3749 27.4187 21.428 27.3964 21.4803C27.365 21.5537 27.3572 21.6076 27.3617 21.7178C27.3684 21.88 27.3807 21.864 27.1537 21.9878C27.0785 22.0288 26.9726 22.0918 26.9183 22.1278C26.8641 22.1638 26.7937 22.2047 26.762 22.2187C26.7047 22.244 26.6025 22.3074 26.4473 22.4141C26.4025 22.4449 26.3577 22.47 26.3477 22.47C26.3377 22.47 26.2732 22.5067 26.2044 22.5514C26.1356 22.5962 26.0002 22.6768 25.9035 22.7305C25.8068 22.7842 25.7101 22.8439 25.6886 22.8632C25.6671 22.8825 25.6115 22.9174 25.5651 22.9409C25.4718 22.988 25.474 23.0028 25.5861 23.0832L25.6433 23.1242L25.7148 23.0845C25.7541 23.0627 25.8566 23.0073 25.9426 22.9614C26.0285 22.9155 26.1384 22.849 26.1867 22.8137C26.2351 22.7785 26.3054 22.7353 26.343 22.7177C26.3806 22.7002 26.4729 22.6461 26.5481 22.5975C26.6233 22.549 26.7156 22.4951 26.7532 22.4779C26.7908 22.4606 26.848 22.427 26.8802 22.4031C26.9382 22.3601 27.0231 22.3092 27.2123 22.2037C27.266 22.1737 27.3526 22.1205 27.4047 22.0853L27.4994 22.0214L27.5805 22.0585C27.7779 22.1487 28.0406 22.0737 28.1372 21.8995C28.2064 21.7749 28.2049 21.6129 28.1334 21.4721C28.0599 21.3276 27.973 21.274 27.786 21.2581L27.6385 21.2456L27.5035 21.0966C27.4293 21.0147 27.3229 20.8986 27.267 20.8387C27.2112 20.7787 27.051 20.6014 26.9111 20.4446C26.7711 20.2878 26.6102 20.1097 26.5535 20.0488C26.4968 19.988 26.4006 19.8818 26.3397 19.8129C26.2787 19.7439 26.1723 19.6255 26.1031 19.5498C25.9793 19.4145 25.7663 19.1788 25.2936 18.6545C25.1622 18.5088 25.0462 18.3808 25.0357 18.37C25.0252 18.3591 24.9016 18.222 24.761 18.0652C24.6204 17.9083 24.4563 17.73 24.3962 17.6688L24.287 17.5576L24.3188 17.4638C24.3362 17.4121 24.3505 17.3413 24.3505 17.3063C24.3505 17.2214 24.2782 17.0352 24.2263 16.9864C24.1758 16.939 23.9961 16.8656 23.9306 16.8656C23.8632 16.8656 23.6851 16.9394 23.6303 16.99C23.565 17.0503 23.5083 17.1928 23.508 17.2977C23.5074 17.4642 23.6092 17.63 23.7385 17.6729L23.8036 17.6946L23.8033 19.5858C23.8031 20.6259 23.796 21.4881 23.7874 21.5017C23.7706 21.5284 23.7121 21.4898 23.5411 21.3393C23.3597 21.1797 23.1767 21.0216 23.0402 20.9067C22.9631 20.8418 22.8594 20.7528 22.8097 20.7088C22.7601 20.6649 22.6931 20.6089 22.6609 20.5844C22.6286 20.5598 22.5715 20.5115 22.5339 20.4769C22.4963 20.4424 22.3886 20.3498 22.2946 20.2711C22.2006 20.1924 22.1237 20.1215 22.1237 20.1135C22.1237 20.1056 22.0989 20.0844 22.0687 20.0664C22.0385 20.0484 21.9572 19.9851 21.888 19.9256C21.6784 19.7453 21.5046 19.594 21.3963 19.4976C21.3398 19.4472 21.2564 19.3764 21.211 19.3402C21.0637 19.2229 20.5136 18.7495 20.4574 18.6917C20.4273 18.6607 20.3964 18.6354 20.3886 18.6354C20.3809 18.6354 20.3308 18.5945 20.2773 18.5444C20.2238 18.4944 20.1454 18.4278 20.1031 18.3964C20.0608 18.3651 19.9817 18.2995 19.9273 18.2508C19.7927 18.1301 19.5826 17.9459 19.5245 17.8978C19.4487 17.8349 19.1222 17.5564 18.9243 17.3858C18.8245 17.2998 18.7146 17.209 18.6801 17.1841C18.6456 17.1592 18.5778 17.0985 18.5294 17.0494C18.4811 17.0002 18.4195 16.9479 18.3927 16.9332C18.3658 16.9185 18.3002 16.8619 18.2469 16.8074C18.1935 16.7529 18.1432 16.7083 18.1351 16.7083C18.1269 16.7083 18.0827 16.6736 18.0367 16.6311C17.9908 16.5887 17.9123 16.5201 17.8623 16.4787C17.5843 16.2486 17.3379 16.0324 17.3379 16.0187C17.3379 16.0101 17.3208 15.9976 17.3 15.9909C17.2792 15.9843 17.2111 15.9301 17.1486 15.8704C17.0862 15.8108 17.0131 15.75 16.9862 15.7353C16.9594 15.7206 16.9024 15.6711 16.8596 15.6253C16.8168 15.5795 16.7585 15.5277 16.73 15.5102C16.7015 15.4928 16.6266 15.432 16.5636 15.3752C16.3611 15.1928 16.1774 15.0368 16.1649 15.0368C16.1583 15.0368 16.1469 15.0427 16.1398 15.0499ZM30.074 19.3224L29.908 19.3335L29.896 20.3069C29.8895 20.8423 29.8829 22.5145 29.8814 24.0229L29.8787 26.7654L29.7761 26.6653C29.7197 26.6103 29.6591 26.5575 29.6415 26.548C29.6239 26.5385 29.5558 26.4821 29.4901 26.4226C29.4244 26.3631 29.3158 26.2678 29.2487 26.2108C29.1815 26.1538 28.986 25.9872 28.8141 25.8405C28.6422 25.6939 28.4368 25.5193 28.3577 25.4525C28.2787 25.3858 28.158 25.2826 28.0895 25.2231C28.0211 25.1636 27.9029 25.0618 27.827 24.9969C27.751 24.932 27.6376 24.8347 27.5749 24.7806C27.5122 24.7265 27.3665 24.6026 27.2513 24.5053C27.136 24.408 26.9953 24.2885 26.9385 24.2398C26.8818 24.1912 26.7725 24.0983 26.6957 24.0334C26.6189 23.9685 26.4951 23.8623 26.4207 23.7974C26.3463 23.7325 26.2259 23.6287 26.1531 23.5666C26.0803 23.5046 25.9724 23.4116 25.9133 23.3599C25.6905 23.1652 25.6681 23.1522 25.5966 23.177C25.5612 23.1893 25.462 23.2431 25.3761 23.2965C25.2901 23.3499 25.1803 23.4143 25.1319 23.4395C25.0836 23.4648 24.9957 23.5168 24.9366 23.555C24.8775 23.5933 24.7679 23.6584 24.693 23.6997C24.5033 23.8043 24.3508 23.9265 24.3502 23.9744C24.3489 24.0783 24.2136 24.2617 24.0846 24.3343C24.0492 24.3542 24.0476 24.4048 24.0421 25.6641C24.039 26.3841 24.0314 26.9732 24.0252 26.9732C24.019 26.9732 23.9723 26.9424 23.9214 26.9048C23.8705 26.8672 23.8231 26.8421 23.8162 26.8491C23.8093 26.8561 23.8033 27.7165 23.8029 28.7611L23.8022 30.6603L23.7003 30.7291C23.5748 30.814 23.5126 30.9289 23.5114 31.0778C23.51 31.2585 23.6036 31.4156 23.7499 31.4779L23.8036 31.5008V31.9369V32.373L23.7013 32.4409C23.5651 32.5312 23.5113 32.6289 23.5109 32.7866C23.5104 32.9761 23.58 33.0943 23.7398 33.1755C23.9507 33.2826 24.1658 33.2064 24.3175 32.9709L24.3619 32.9021L25.2694 32.896C25.7686 32.8927 26.2751 32.8957 26.3951 32.9028C26.6077 32.9153 26.6135 32.9168 26.6256 32.9654C26.6539 33.0789 26.881 33.2265 27.0273 33.2265C27.1704 33.2265 27.3586 33.1042 27.4064 32.9801C27.4688 32.8179 27.4273 32.5877 27.3172 32.4854C27.2548 32.4275 27.108 32.3623 27.0387 32.3617C26.8906 32.3606 26.6896 32.4867 26.6374 32.6135C26.6158 32.6662 26.6041 32.6714 26.4834 32.6829C26.4116 32.6897 25.9042 32.6954 25.3559 32.6955L24.359 32.6956L24.3227 32.6317C24.2721 32.5426 24.1973 32.4634 24.1113 32.408L24.038 32.3608V31.939V31.5172L24.1503 31.4399C24.2252 31.3885 24.2788 31.3325 24.3111 31.2721L24.3595 31.1814L24.9948 31.1814L25.63 31.1815L25.6837 31.2777C25.7413 31.3809 25.8796 31.4863 25.9853 31.5076C26.0831 31.5273 26.2553 31.4807 26.3412 31.4112C26.4745 31.3035 26.5203 31.0669 26.4418 30.8926C26.4013 30.803 26.2849 30.706 26.1731 30.6689C26.0031 30.6124 25.7908 30.7058 25.6892 30.8817L25.63 30.9841L24.9907 30.9844L24.3513 30.9848L24.3133 30.9097C24.2769 30.838 24.1652 30.7243 24.0853 30.6778C24.0488 30.6566 24.0478 30.6135 24.0477 29.0752C24.0477 28.2057 24.0521 27.3898 24.0575 27.2621L24.0673 27.03L24.1653 27.1147C24.2192 27.1612 24.283 27.2193 24.3069 27.2436C24.3309 27.2679 24.3577 27.2878 24.3664 27.2878C24.3752 27.2878 24.4362 27.3409 24.5021 27.4058C24.568 27.4707 24.6301 27.5238 24.6403 27.5238C24.6504 27.5238 24.7102 27.5734 24.7732 27.6339C24.8362 27.6944 24.9119 27.7566 24.9415 27.772C24.971 27.7875 24.9952 27.8071 24.9952 27.8157C24.9952 27.8242 25.0837 27.9049 25.1919 27.995C25.3001 28.085 25.4649 28.226 25.5582 28.3083C25.6515 28.3906 25.7596 28.4818 25.7984 28.511C25.8373 28.5402 25.8944 28.5917 25.9254 28.6254C25.9563 28.6591 26.0256 28.7166 26.0793 28.7532C26.133 28.7897 26.188 28.8377 26.2014 28.8597C26.2148 28.8818 26.2588 28.9213 26.2991 28.9476C26.3394 28.9738 26.4194 29.04 26.4769 29.0946C26.5344 29.1493 26.5982 29.1993 26.6185 29.2058C26.6389 29.2123 26.6556 29.225 26.6556 29.234C26.6556 29.243 26.7501 29.3297 26.8655 29.4266C27.0934 29.6178 27.3245 29.8144 27.3995 29.8808C27.4254 29.9038 27.4994 29.9695 27.5639 30.0268C27.6283 30.0841 27.7162 30.1567 27.7592 30.1881C27.8022 30.2195 27.844 30.256 27.8521 30.2692C27.8602 30.2825 27.9118 30.3266 27.9669 30.3673C28.022 30.4079 28.111 30.4837 28.1647 30.5355C28.2184 30.5873 28.2788 30.635 28.2989 30.6415C28.319 30.6479 28.3355 30.6607 28.3355 30.67C28.3355 30.6793 28.4301 30.7657 28.5456 30.862C28.6612 30.9583 28.772 31.0534 28.7917 31.0733C28.8115 31.0932 28.8732 31.1456 28.9288 31.1897C28.9844 31.2338 29.0517 31.2899 29.0783 31.3144C29.3012 31.5194 29.4109 31.614 29.4256 31.614C29.4352 31.614 29.4817 31.6534 29.529 31.7014C29.5763 31.7495 29.6474 31.8136 29.687 31.844C29.7266 31.8743 29.9135 32.0319 30.1023 32.1942C30.2911 32.3564 30.4828 32.5189 30.5284 32.5553C30.5739 32.5916 30.6561 32.6624 30.7109 32.7126C30.7658 32.7627 30.8471 32.8298 30.8916 32.8616C30.9361 32.8934 30.9726 32.9263 30.9726 32.9347C30.9726 32.9431 31.0229 32.9879 31.0845 33.0342C31.146 33.0805 31.2141 33.1381 31.2358 33.1621C31.2576 33.1861 31.312 33.2348 31.3569 33.2702C31.4229 33.3224 32.0275 33.8321 32.1754 33.9602C32.2506 34.0253 32.4969 34.2417 32.6075 34.3399C32.6698 34.3952 32.7516 34.4619 32.7892 34.488C32.8268 34.5142 32.8887 34.5663 32.9267 34.6037C32.9648 34.6412 33.0963 34.756 33.2189 34.8587C33.3416 34.9615 33.4882 35.0853 33.5447 35.134C33.7328 35.296 33.827 35.37 33.8454 35.37C33.8566 35.37 33.8636 32.2866 33.8636 27.337V19.304L32.0518 19.3077C31.0553 19.3097 30.1653 19.3163 30.074 19.3224ZM24.0481 21.9239C24.041 22.0026 24.038 22.3889 24.0415 22.7825C24.0474 23.4547 24.05 23.4995 24.084 23.52C24.1039 23.5319 24.1567 23.5704 24.2012 23.6055C24.3126 23.6931 24.295 23.6966 24.539 23.5386C24.5944 23.5028 24.6609 23.4653 24.6869 23.4554C24.7129 23.4454 24.8253 23.3789 24.9367 23.3076C25.048 23.2363 25.1473 23.178 25.1573 23.178C25.1713 23.178 25.4154 23.0254 25.4634 22.9866C25.4684 22.9826 25.4421 22.9558 25.4048 22.9273C25.3675 22.8987 25.3061 22.8439 25.2684 22.8054C25.2306 22.767 25.1618 22.7095 25.1155 22.6777C25.0692 22.6459 25.021 22.6054 25.0084 22.5875C24.9957 22.5697 24.9415 22.5229 24.8877 22.4835C24.834 22.4442 24.751 22.3719 24.7032 22.323C24.6554 22.2741 24.6094 22.2341 24.6009 22.2341C24.5925 22.2341 24.5437 22.1948 24.4925 22.1468C24.4413 22.0989 24.3667 22.0347 24.3269 22.0043C24.2869 21.9738 24.2108 21.9111 24.1576 21.8649L24.0609 21.781L24.0481 21.9239Z" fill="black"/>
</svg>
