<svg width="94" height="27" viewBox="0 0 94 27" fill="none" xmlns="http://www.w3.org/2000/svg">
<path fill-rule="evenodd" clip-rule="evenodd" d="M8.61691 0.10499C3.80946 0.606132 1.00135 3.59191 1.25213 7.93581C1.41824 10.8134 2.49732 12.6365 5.35073 14.8605L5.96707 15.3409L3.36444 19.2082C1.93294 21.3352 0.761719 23.0965 0.761719 23.1222C0.761719 23.1479 1.72281 23.1689 2.8975 23.1689H5.03338L7.88459 18.8632C9.4528 16.4952 10.753 14.5133 10.7738 14.4591C10.7946 14.4049 10.1634 13.9219 9.37115 13.3856C7.56742 12.1649 6.82816 11.5537 6.2804 10.8306C5.56661 9.8882 5.27639 9.07756 5.17904 7.75338C4.99904 5.30742 6.32076 3.68021 8.84458 3.24064C9.29289 3.16247 10.1803 3.10135 10.8649 3.10135H12.0858V13.1351V23.1689H14.0493H16.0127V11.5845V0L12.7023 0.0121318C10.8816 0.0187905 9.04312 0.0605676 8.61691 0.10499ZM57.2065 6.21064C54.5473 6.73176 52.6894 8.61291 51.947 11.5358C51.6558 12.6825 51.5004 14.4102 51.5776 15.6436C51.8543 20.0675 53.6989 22.5232 57.3366 23.311C58.2406 23.5068 60.5016 23.5331 61.4919 23.3594C62.4805 23.186 63.5339 22.8391 64.3457 22.4197L65.0535 22.054V20.4361V18.8183L64.2087 19.2518C63.3028 19.7168 62.1936 20.0856 61.1861 20.2568C60.3564 20.3978 58.5714 20.3205 57.974 20.1177C56.6714 19.6757 55.8946 18.5474 55.6948 16.8074L55.6294 16.2381L60.41 16.2145L65.1905 16.1909L65.2189 15.0507C65.3297 10.6056 64.2206 7.87898 61.8444 6.75502C61.4245 6.55635 60.7641 6.33031 60.377 6.25269C59.6185 6.10054 57.8857 6.07755 57.2065 6.21064ZM87.8844 6.24247C86.3645 6.56447 85.3312 7.11514 84.2788 8.16385C82.7154 9.72173 81.9494 11.9266 81.9494 14.8682C81.9494 19.3404 83.7378 22.2426 87.0606 23.1623C89.0839 23.7223 91.7436 23.5864 93.2496 22.8459L93.9117 22.5205V20.8954V19.2703L93.2496 19.6157C92.3794 20.0694 91.699 20.2433 90.5327 20.31C88.1991 20.4435 86.9494 19.5112 86.3135 17.1627C86.0472 16.1791 86.0246 13.6086 86.2728 12.5506C86.7033 10.7161 87.5603 9.7065 89.0007 9.33689C90.1373 9.04518 92.1853 9.34547 93.4603 9.99082L93.9117 10.2193V8.53683V6.85435L93.3866 6.65687C92.4362 6.29957 91.7242 6.1913 90.0761 6.15345C88.9404 6.12736 88.3062 6.15317 87.8844 6.24247ZM19.3917 14.777V23.1689H21.4008H23.41V19.6557V16.1424L26.0355 16.1667L28.6611 16.1909L28.685 19.6799L28.7089 23.1689H30.6713H32.6336V14.777V6.38514H30.6713H28.709L28.685 9.69172L28.6611 12.9983L26.0355 13.0225L23.41 13.0467V9.71589V6.38514H21.4008H19.3917V14.777ZM37.1998 8.59868C37.1998 13.45 36.7521 17.038 35.8575 19.3569L35.6214 19.9689L34.9722 19.9954L34.3231 20.022L34.2992 23.511L34.2753 27H36.101H37.9267L37.9514 25.1073L37.9761 23.2145L42.4281 23.1908L46.8801 23.1672V25.0835V27H48.7066H50.533V23.4882V19.9764H49.6655H48.7979V13.1807V6.38514H42.9988H37.1998V8.59868ZM67.8845 14.777V23.1689H69.8471H71.8096L71.8333 19.0591L71.8571 14.9492L74.7738 19.0591L77.6905 23.1689H79.9107C81.1319 23.1689 82.131 23.1452 82.131 23.1163C82.131 23.0873 80.7151 21.0548 78.9845 18.5996L75.8382 14.1357L78.469 10.5055C79.916 8.50883 81.1723 6.76496 81.2607 6.63014L81.4214 6.38514L79.4246 6.3886L77.4278 6.39198L74.6979 10.1767C73.1964 12.2583 71.9327 13.9832 71.8897 14.0097C71.8467 14.0364 71.8114 12.3316 71.8114 10.2216V6.38514H69.848H67.8845V14.777ZM59.5068 9.35641C60.4559 9.67941 61.0198 10.7162 61.1033 12.2914L61.1528 13.2264H58.3881H55.6236L55.6869 12.5847C55.8627 10.8029 56.5845 9.65131 57.7471 9.29803C58.1457 9.1769 59.0694 9.20755 59.5068 9.35641ZM44.8489 14.7542L44.8724 19.9764H42.0863C40.554 19.9764 39.3002 19.9498 39.3002 19.9173C39.3002 19.885 39.4201 19.4847 39.5665 19.028C40.1031 17.3546 40.4617 14.7952 40.5391 12.0861C40.565 11.1831 40.6081 10.228 40.6349 9.96364L40.6837 9.48311L42.7545 9.50756L44.8253 9.53209L44.8489 14.7542Z" fill="white"/>
</svg>
